<svg xmlns="http://www.w3.org/2000/svg" xmlns:xlink="http://www.w3.org/1999/xlink" width="150" zoomAndPan="magnify" viewBox="0 0 112.5 74.999997" height="100" preserveAspectRatio="xMidYMid meet" version="1.0"><defs><g/><clipPath id="2b2819c78c"><path d="M 3 15.339844 L 35 15.339844 L 35 29 L 3 29 Z M 3 15.339844 " clip-rule="nonzero"/></clipPath><clipPath id="54477620e8"><path d="M 2.019531 23 L 39.519531 23 L 39.519531 45.339844 L 2.019531 45.339844 Z M 2.019531 23 " clip-rule="nonzero"/></clipPath><clipPath id="939ee05bbd"><path d="M 2.019531 30 L 39.519531 30 L 39.519531 45.339844 L 2.019531 45.339844 Z M 2.019531 30 " clip-rule="nonzero"/></clipPath><clipPath id="1ef6526065"><path d="M 3 15.339844 L 35 15.339844 L 35 29 L 3 29 Z M 3 15.339844 " clip-rule="nonzero"/></clipPath><clipPath id="a81d32c182"><path d="M 16 33 L 39.519531 33 L 39.519531 42 L 16 42 Z M 16 33 " clip-rule="nonzero"/></clipPath><clipPath id="5d675ee82c"><path d="M 35.523438 15.339844 L 56.523438 15.339844 L 56.523438 45.339844 L 35.523438 45.339844 Z M 35.523438 15.339844 " clip-rule="nonzero"/></clipPath><clipPath id="e67e640f72"><path d="M 107 35 L 112.003906 35 L 112.003906 43 L 107 43 Z M 107 35 " clip-rule="nonzero"/></clipPath></defs><g clip-path="url(#2b2819c78c)"><path fill="#303033" d="M 4.054688 24.910156 C 4.148438 24.992188 4.292969 25.019531 4.421875 25.054688 C 5.027344 25.238281 5.636719 25.421875 6.246094 25.601562 C 7.300781 25.824219 8.351562 26.074219 9.410156 26.269531 C 12.867188 26.90625 16.328125 27.53125 19.785156 28.15625 C 20.53125 28.289062 21.277344 28.453125 22.03125 28.511719 C 22.464844 28.546875 22.957031 28.480469 23.351562 28.304688 C 25.566406 27.339844 27.765625 26.339844 29.953125 25.320312 C 31.128906 24.777344 32.273438 24.175781 33.476562 23.566406 C 34.527344 22.859375 34.847656 21.851562 34.851562 20.714844 C 34.851562 19.847656 34.445312 19.34375 33.664062 19.160156 C 33.585938 19.277344 33.53125 19.453125 33.425781 19.492188 C 33.417969 19.496094 33.410156 19.5 33.402344 19.5 C 33.410156 19.5 33.417969 19.496094 33.425781 19.492188 C 33.53125 19.453125 33.585938 19.277344 33.648438 19.152344 C 33.597656 19.128906 33.558594 19.117188 33.488281 19.113281 C 32.921875 19.304688 32.378906 19.476562 31.851562 19.679688 C 32.378906 19.476562 32.917969 19.304688 33.46875 19.089844 C 32.105469 18.652344 30.738281 18.1875 29.347656 17.839844 C 26.128906 17.035156 22.890625 16.300781 19.671875 15.507812 C 19.050781 15.355469 18.457031 15.339844 17.859375 15.496094 C 15.25 16.171875 12.640625 16.828125 10.046875 17.550781 C 8.339844 18.027344 6.660156 18.601562 4.96875 19.128906 C 4.722656 19.207031 4.488281 19.292969 4.691406 19.625 C 4.917969 19.644531 5.152344 19.636719 5.378906 19.664062 C 5.152344 19.640625 4.914062 19.652344 4.6875 19.652344 C 4.703125 20.097656 5.113281 19.8125 5.289062 19.996094 C 5.386719 20.003906 5.457031 19.996094 5.523438 20.011719 C 6.902344 20.371094 8.28125 20.746094 9.664062 21.089844 C 12.035156 21.675781 14.414062 22.242188 16.789062 22.816406 C 18.3125 23.1875 19.835938 23.539062 21.351562 23.929688 C 22.445312 24.210938 23.046875 25.011719 23.039062 26.058594 C 23.042969 25.011719 22.441406 24.214844 21.351562 23.929688 C 19.835938 23.539062 18.3125 23.1875 16.789062 22.820312 C 14.414062 22.246094 12.035156 21.675781 9.664062 21.089844 C 8.28125 20.746094 6.902344 20.371094 5.523438 20.015625 C 5.457031 19.996094 5.386719 20.003906 5.289062 20.03125 C 5.410156 20.765625 5.644531 21.464844 5.699219 22.175781 C 5.757812 22.898438 5.636719 23.632812 4.917969 24.085938 C 4.773438 24.179688 4.65625 24.308594 4.546875 24.441406 C 4.75 24.496094 4.941406 24.546875 5.128906 24.585938 C 4.9375 24.546875 4.738281 24.496094 4.515625 24.441406 C 4.367188 24.410156 4.269531 24.378906 4.183594 24.402344 C 4.058594 24.433594 3.941406 24.503906 3.820312 24.554688 C 3.894531 24.675781 3.953125 24.820312 4.054688 24.910156 Z M 27.351562 21.75 C 27.203125 21.804688 27.027344 21.785156 26.859375 21.804688 C 27.023438 21.785156 27.203125 21.804688 27.351562 21.75 C 27.375 21.738281 27.398438 21.730469 27.417969 21.722656 C 27.398438 21.730469 27.375 21.738281 27.351562 21.75 Z M 10.691406 22.851562 C 11.246094 23 11.8125 23.125 12.367188 23.28125 C 13.339844 23.554688 14.304688 23.847656 15.277344 24.121094 C 15.878906 24.285156 16.484375 24.425781 17.113281 24.59375 C 17.597656 24.75 18.066406 24.871094 18.523438 25.035156 C 18.910156 25.175781 19.332031 25.125 19.714844 25.398438 C 20.066406 25.648438 20.566406 25.695312 21.007812 25.804688 C 21.023438 25.808594 21.035156 25.808594 21.050781 25.8125 C 21.035156 25.808594 21.019531 25.808594 21.007812 25.804688 C 20.566406 25.695312 20.0625 25.648438 19.714844 25.398438 C 19.328125 25.125 18.910156 25.175781 18.519531 25.035156 C 18.066406 24.871094 17.597656 24.75 17.136719 24.609375 C 16.484375 24.425781 15.878906 24.285156 15.277344 24.121094 C 14.304688 23.847656 13.339844 23.554688 12.367188 23.28125 C 11.8125 23.125 11.246094 23 10.691406 22.851562 C 10.585938 22.824219 10.503906 22.734375 10.410156 22.671875 C 10.503906 22.65625 10.605469 22.613281 10.699219 22.625 C 10.605469 22.613281 10.503906 22.65625 10.410156 22.671875 C 10.503906 22.730469 10.589844 22.824219 10.691406 22.851562 Z M 11.085938 22.691406 C 11.375 22.746094 11.660156 22.800781 11.945312 22.867188 C 11.660156 22.800781 11.375 22.746094 11.085938 22.691406 Z M 15.964844 24.738281 C 15.863281 24.679688 15.765625 24.617188 15.65625 24.570312 C 15.585938 24.539062 15.507812 24.527344 15.429688 24.511719 C 15.003906 24.417969 14.578125 24.324219 14.148438 24.242188 C 14.105469 24.234375 14.050781 24.292969 14.003906 24.320312 C 14.050781 24.292969 14.105469 24.234375 14.148438 24.242188 C 14.578125 24.324219 15.003906 24.417969 15.429688 24.507812 C 15.507812 24.527344 15.585938 24.539062 15.65625 24.570312 C 15.765625 24.617188 15.863281 24.679688 15.96875 24.738281 C 15.96875 24.738281 15.964844 24.738281 15.964844 24.738281 Z M 15.898438 24.742188 C 15.808594 24.742188 15.722656 24.746094 15.632812 24.75 C 15.238281 24.640625 14.855469 24.558594 14.476562 24.480469 C 14.855469 24.554688 15.234375 24.632812 15.621094 24.726562 C 15.71875 24.742188 15.808594 24.742188 15.898438 24.742188 Z M 13.542969 24.082031 C 13.476562 24.058594 13.410156 24.03125 13.34375 24.011719 C 13.148438 23.957031 12.957031 23.878906 12.757812 23.851562 C 12.597656 23.832031 12.429688 23.871094 12.261719 23.878906 C 12.425781 23.867188 12.59375 23.832031 12.757812 23.851562 C 12.957031 23.878906 13.148438 23.953125 13.34375 24.011719 C 13.410156 24.03125 13.476562 24.058594 13.542969 24.082031 Z M 13.078125 24.160156 C 12.945312 24.136719 12.808594 24.101562 12.675781 24.074219 C 12.664062 24.066406 12.65625 24.0625 12.644531 24.058594 C 12.800781 24.097656 12.941406 24.132812 13.078125 24.160156 Z M 22.6875 27.496094 C 22.832031 27.417969 22.898438 27.191406 23.003906 27.03125 C 23 26.878906 22.976562 26.726562 22.988281 26.582031 C 22.976562 26.726562 23.003906 26.878906 23.03125 27.027344 C 23.089844 26.980469 23.132812 26.945312 23.152344 26.898438 C 23.679688 25.804688 23.082031 24.410156 22.019531 23.851562 C 23.085938 24.40625 23.683594 25.804688 23.152344 26.902344 C 23.132812 26.945312 23.09375 26.980469 23.03125 27.027344 C 22.902344 27.191406 22.835938 27.417969 22.6875 27.492188 C 22.523438 27.578125 22.339844 27.671875 22.15625 27.734375 C 22.339844 27.671875 22.523438 27.578125 22.6875 27.496094 Z M 20.757812 24.5625 C 20.71875 24.546875 20.683594 24.535156 20.644531 24.519531 C 20.683594 24.535156 20.71875 24.546875 20.757812 24.5625 Z M 20.546875 24.480469 C 20.507812 24.46875 20.464844 24.453125 20.425781 24.4375 C 20.464844 24.453125 20.507812 24.46875 20.546875 24.480469 Z M 19.886719 24.253906 C 19.519531 24.160156 19.171875 24.070312 18.832031 23.976562 C 19.179688 24.070312 19.527344 24.160156 19.875 24.25 C 19.878906 24.253906 19.882812 24.253906 19.886719 24.253906 Z M 9.515625 21.703125 C 9.554688 21.75 9.578125 21.8125 9.625 21.839844 C 9.695312 21.878906 9.777344 21.890625 9.851562 21.921875 C 10.515625 22.171875 11.25 22.160156 11.910156 22.445312 C 12.160156 22.550781 12.445312 22.5625 12.707031 22.640625 C 13.597656 22.902344 14.480469 23.179688 15.371094 23.4375 C 16.9375 23.894531 18.511719 24.34375 20.082031 24.800781 C 20.292969 24.859375 20.492188 24.96875 20.707031 25.003906 C 20.800781 25.019531 20.914062 24.894531 21.015625 24.835938 C 20.914062 24.894531 20.800781 25.019531 20.707031 25.003906 C 20.492188 24.96875 20.292969 24.863281 20.078125 24.800781 C 18.511719 24.34375 16.9375 23.898438 15.371094 23.4375 C 14.480469 23.179688 13.59375 22.902344 12.707031 22.640625 C 12.445312 22.5625 12.15625 22.550781 11.910156 22.445312 C 11.246094 22.164062 10.515625 22.175781 9.847656 21.921875 C 9.773438 21.894531 9.691406 21.878906 9.625 21.839844 C 9.578125 21.8125 9.550781 21.75 9.515625 21.703125 Z M 9.589844 23.324219 C 9.507812 23.335938 9.425781 23.363281 9.347656 23.347656 C 8.695312 23.246094 8.046875 23.140625 7.398438 23.019531 C 7.316406 23.003906 7.25 22.90625 7.175781 22.847656 C 7.175781 22.828125 7.175781 22.8125 7.175781 22.804688 C 7.921875 22.90625 8.65625 23.007812 9.386719 23.128906 C 9.464844 23.140625 9.523438 23.257812 9.589844 23.324219 Z M 9.363281 22.351562 C 9.324219 22.363281 9.28125 22.390625 9.242188 22.382812 C 8.78125 22.300781 8.320312 22.210938 7.859375 22.121094 C 7.828125 22.117188 7.804688 22.085938 7.777344 22.066406 C 7.8125 22.042969 7.851562 22.003906 7.886719 22.007812 C 8.023438 22.019531 8.164062 22.046875 8.300781 22.070312 C 8.671875 22.148438 8.972656 22.210938 9.277344 22.277344 C 9.308594 22.285156 9.335938 22.324219 9.363281 22.351562 Z M 7.5 21.132812 C 7.902344 21.21875 8.300781 21.332031 8.699219 21.441406 C 8.753906 21.453125 8.804688 21.488281 8.855469 21.511719 C 8.796875 21.554688 8.742188 21.617188 8.675781 21.636719 C 8.621094 21.648438 8.554688 21.613281 8.496094 21.59375 C 8.066406 21.464844 7.632812 21.339844 7.203125 21.210938 C 7.265625 21.179688 7.394531 21.113281 7.5 21.132812 Z M 5.320312 24.621094 C 5.289062 24.617188 5.257812 24.613281 5.226562 24.605469 C 5.257812 24.613281 5.289062 24.617188 5.320312 24.621094 Z M 5.320312 24.621094 " fill-opacity="1" fill-rule="nonzero"/></g><path fill="#303033" d="M 4.558594 31.019531 C 4.632812 31.058594 4.679688 31.082031 4.730469 31.09375 C 8.1875 31.894531 11.640625 32.691406 15.097656 33.492188 C 17.25 33.992188 19.40625 34.492188 21.558594 34.992188 C 22.054688 35.109375 22.585938 34.773438 22.734375 34.269531 C 22.953125 33.523438 22.820312 32.800781 22.613281 32.082031 C 22.3125 30.957031 21.382812 30.796875 20.421875 30.625 C 18.164062 30.21875 15.914062 29.785156 13.664062 29.332031 C 11.433594 28.878906 9.203125 28.394531 6.976562 27.910156 C 6.125 27.722656 5.277344 27.488281 4.402344 27.304688 C 4.453125 27.503906 4.535156 27.671875 4.613281 27.839844 C 4.753906 27.878906 4.894531 27.929688 5.039062 27.964844 C 4.894531 27.929688 4.75 27.882812 4.59375 27.855469 C 4.5 28.066406 4.546875 28.199219 4.804688 28.226562 C 5.472656 28.335938 6.105469 28.441406 6.738281 28.558594 C 7.992188 28.792969 9.25 29.023438 10.5 29.273438 C 11.296875 29.429688 12.082031 29.621094 12.875 29.789062 C 13.492188 29.921875 14.109375 30.039062 14.726562 30.164062 C 14.738281 30.164062 14.75 30.164062 14.761719 30.164062 C 14.75 30.164062 14.738281 30.164062 14.726562 30.164062 C 14.109375 30.039062 13.488281 29.921875 12.875 29.789062 C 12.082031 29.621094 11.292969 29.429688 10.5 29.273438 C 9.246094 29.023438 7.992188 28.792969 6.738281 28.558594 C 6.105469 28.441406 5.472656 28.335938 4.804688 28.261719 C 4.785156 28.378906 4.796875 28.453125 4.804688 28.53125 C 4.871094 29.175781 5.089844 29.820312 4.78125 30.488281 C 4.699219 30.679688 4.617188 30.839844 4.558594 31.019531 Z M 20.070312 31.398438 C 20.023438 31.363281 19.984375 31.3125 19.929688 31.296875 C 19.886719 31.28125 19.835938 31.265625 19.789062 31.25 C 19.835938 31.265625 19.886719 31.28125 19.929688 31.296875 C 19.984375 31.3125 20.023438 31.363281 20.070312 31.398438 Z M 15.582031 30.160156 C 16.59375 30.425781 17.597656 30.707031 18.605469 30.976562 C 18.699219 31 18.808594 30.96875 18.910156 30.960938 C 19.140625 31.042969 19.351562 31.113281 19.554688 31.175781 C 19.355469 31.113281 19.148438 31.046875 18.933594 30.976562 C 18.808594 30.96875 18.699219 31 18.605469 30.976562 C 17.597656 30.707031 16.59375 30.425781 15.582031 30.160156 C 15.484375 30.132812 15.363281 30.195312 15.25 30.21875 C 15.363281 30.195312 15.484375 30.132812 15.582031 30.160156 Z M 14.777344 30.617188 C 14.699219 30.605469 14.621094 30.585938 14.546875 30.570312 C 14.625 30.585938 14.699219 30.605469 14.777344 30.617188 C 14.871094 30.632812 14.972656 30.605469 15.074219 30.597656 C 14.976562 30.605469 14.871094 30.636719 14.777344 30.617188 Z M 11.644531 29.386719 C 11.695312 29.386719 11.75 29.386719 11.800781 29.386719 C 11.75 29.386719 11.699219 29.386719 11.644531 29.386719 Z M 12.480469 29.976562 C 12.527344 30.035156 12.566406 30.125 12.625 30.140625 C 12.960938 30.21875 13.300781 30.292969 13.648438 30.367188 C 13.292969 30.292969 12.957031 30.21875 12.625 30.140625 C 12.566406 30.125 12.527344 30.035156 12.476562 29.976562 C 12.476562 29.976562 12.476562 29.976562 12.480469 29.976562 Z M 12.480469 29.976562 " fill-opacity="1" fill-rule="nonzero"/><g clip-path="url(#54477620e8)"><path fill="#303033" d="M 39.339844 33.667969 C 38.566406 33.820312 37.824219 33.960938 37.089844 34.140625 C 31.433594 35.511719 25.777344 36.890625 20.121094 38.269531 C 19.515625 38.417969 18.914062 38.582031 18.304688 38.710938 C 18.105469 38.753906 17.886719 38.710938 17.71875 38.839844 C 17.886719 38.710938 18.105469 38.753906 18.304688 38.710938 C 18.914062 38.582031 19.515625 38.417969 20.125 38.269531 C 25.777344 36.890625 31.433594 35.511719 37.089844 34.140625 C 37.824219 33.960938 38.566406 33.816406 39.339844 33.636719 C 39.230469 33.484375 39.109375 33.320312 38.945312 33.234375 C 38.699219 33.105469 38.425781 33.035156 38.164062 32.941406 C 36 32.171875 33.835938 31.402344 31.671875 30.632812 C 30.933594 31.050781 30.191406 31.464844 29.449219 31.878906 C 30.195312 31.460938 30.945312 31.042969 31.699219 30.617188 C 32.671875 30.136719 33.621094 29.679688 34.566406 29.21875 C 35.304688 28.863281 35.777344 28.253906 35.894531 27.476562 C 35.992188 26.816406 35.976562 26.121094 35.871094 25.460938 C 35.769531 24.8125 35.429688 24.203125 34.792969 23.910156 C 34.394531 23.722656 33.925781 23.683594 33.460938 23.589844 C 32.273438 24.175781 31.128906 24.777344 29.953125 25.324219 C 27.765625 26.339844 25.566406 27.339844 23.351562 28.308594 C 22.957031 28.480469 22.464844 28.546875 22.03125 28.511719 C 21.277344 28.453125 20.53125 28.289062 19.785156 28.15625 C 16.324219 27.53125 12.867188 26.910156 9.410156 26.269531 C 8.351562 26.074219 7.300781 25.824219 6.222656 25.621094 C 5.511719 25.777344 4.816406 25.894531 4.140625 26.074219 C 3.953125 26.121094 3.8125 26.339844 3.648438 26.480469 C 3.671875 26.480469 3.699219 26.46875 3.722656 26.464844 C 3.699219 26.472656 3.671875 26.488281 3.644531 26.507812 C 3.605469 27.054688 4.082031 27.074219 4.398438 27.277344 C 5.28125 27.488281 6.125 27.722656 6.980469 27.90625 C 9.207031 28.394531 11.433594 28.878906 13.667969 29.332031 C 15.914062 29.785156 18.167969 30.21875 20.421875 30.625 C 21.382812 30.796875 22.308594 30.957031 22.644531 32.074219 C 22.667969 31.996094 22.679688 31.925781 22.679688 31.855469 C 22.683594 31.925781 22.667969 32 22.644531 32.074219 C 22.820312 32.804688 22.953125 33.527344 22.734375 34.273438 C 22.585938 34.777344 22.058594 35.109375 21.558594 34.996094 C 19.40625 34.492188 17.25 33.992188 15.097656 33.496094 C 11.640625 32.695312 8.1875 31.898438 4.730469 31.097656 C 4.679688 31.085938 4.632812 31.0625 4.523438 31.023438 C 4.421875 31 4.375 30.984375 4.34375 31 C 4.179688 31.09375 3.90625 31.167969 3.871094 31.300781 C 3.867188 31.332031 3.863281 31.359375 3.863281 31.382812 C 3.863281 31.359375 3.863281 31.328125 3.871094 31.296875 C 3.90625 31.167969 4.179688 31.09375 4.34375 31 C 4.375 30.980469 4.421875 31 4.5 31 C 4.617188 30.839844 4.699219 30.679688 4.75 30.492188 C 4.339844 30.601562 3.96875 30.757812 3.582031 30.859375 C 2.804688 31.0625 2.355469 31.601562 2.246094 32.335938 C 2.109375 33.25 2.101562 34.179688 2.0625 35.105469 C 2.035156 35.839844 2.445312 36.355469 3.015625 36.753906 C 4.613281 37.867188 6.191406 39.007812 7.820312 40.070312 C 10.402344 41.75 12.972656 43.449219 15.78125 44.742188 C 16.441406 45.046875 17.109375 45.34375 17.855469 45.234375 C 18.5625 45.128906 19.277344 44.996094 19.964844 44.808594 C 24.09375 43.675781 28.21875 42.535156 32.335938 41.371094 C 34.421875 40.777344 36.492188 40.128906 38.566406 39.488281 C 38.710938 39.445312 38.808594 39.257812 38.929688 39.136719 C 38.777344 39.070312 38.625 39 38.476562 38.933594 C 35.761719 39.660156 33.046875 40.382812 30.335938 41.109375 C 33.046875 40.382812 35.761719 39.65625 38.464844 38.910156 C 37.710938 38.222656 37.585938 37.359375 37.691406 36.445312 C 37.738281 36.042969 37.875 35.644531 38.023438 35.261719 C 38.15625 34.910156 38.351562 34.585938 38.519531 34.25 C 38.519531 34.25 38.523438 34.25 38.523438 34.25 C 38.527344 34.25 38.539062 34.25 38.539062 34.25 C 38.554688 34.234375 38.578125 34.226562 38.648438 34.222656 C 38.875 34.164062 39.054688 34.125 39.230469 34.066406 C 39.433594 34 39.503906 33.871094 39.339844 33.667969 Z M 29.96875 38.828125 C 29.964844 38.828125 29.964844 38.832031 29.960938 38.832031 C 29.964844 38.832031 29.964844 38.828125 29.96875 38.828125 Z M 26.289062 39.253906 C 26.28125 39.253906 26.277344 39.25 26.269531 39.25 C 27.394531 38.9375 28.484375 38.609375 29.582031 38.3125 C 28.480469 38.609375 27.386719 38.9375 26.289062 39.253906 Z M 29.003906 39.003906 C 28.753906 39.066406 28.5 39.132812 28.242188 39.195312 C 28.234375 39.199219 28.226562 39.199219 28.222656 39.199219 C 28.492188 39.132812 28.75 39.066406 29.003906 39.003906 Z M 27.757812 39.359375 C 27.855469 39.367188 27.957031 39.398438 28.046875 39.375 C 28.65625 39.222656 29.265625 39.0625 29.875 38.898438 C 29.882812 38.898438 29.894531 38.890625 29.90625 38.882812 C 29.894531 38.890625 29.882812 38.898438 29.871094 38.902344 C 29.265625 39.0625 28.65625 39.222656 28.046875 39.375 C 27.957031 39.398438 27.855469 39.367188 27.757812 39.359375 Z M 29.121094 37.5625 C 29.160156 37.570312 29.203125 37.589844 29.234375 37.582031 C 29.378906 37.53125 29.519531 37.460938 29.664062 37.425781 C 30.070312 37.339844 30.484375 37.28125 30.890625 37.183594 C 31.304688 37.082031 31.71875 36.976562 32.136719 36.867188 C 31.71875 36.976562 31.304688 37.082031 30.890625 37.183594 C 30.484375 37.28125 30.070312 37.339844 29.664062 37.429688 C 29.519531 37.460938 29.378906 37.535156 29.234375 37.582031 C 29.203125 37.59375 29.160156 37.570312 29.121094 37.566406 C 29.121094 37.566406 29.121094 37.566406 29.121094 37.5625 Z M 26.179688 39.042969 C 26.769531 38.875 27.359375 38.710938 27.953125 38.542969 C 27.359375 38.710938 26.769531 38.875 26.179688 39.042969 Z M 26.011719 39.1875 C 25.992188 39.179688 25.972656 39.175781 25.953125 39.167969 C 25.972656 39.175781 25.992188 39.179688 26.011719 39.1875 Z M 28.585938 26.894531 C 30.007812 26.125 31.429688 25.34375 32.867188 24.5625 C 33.023438 24.480469 33.167969 24.402344 33.300781 24.324219 C 33.167969 24.402344 33.03125 24.476562 32.894531 24.554688 C 31.4375 25.34375 30.011719 26.125 28.585938 26.894531 Z M 27.433594 27.519531 C 27.78125 27.332031 28.132812 27.140625 28.484375 26.949219 C 28.132812 27.140625 27.78125 27.332031 27.433594 27.519531 Z M 26.953125 27.460938 C 29.082031 26.292969 31.214844 25.132812 33.351562 23.976562 C 33.519531 23.886719 33.726562 23.871094 33.917969 23.820312 C 33.726562 23.871094 33.519531 23.886719 33.355469 23.976562 C 31.214844 25.132812 29.082031 26.292969 26.953125 27.460938 C 26.796875 27.546875 26.675781 27.691406 26.535156 27.8125 C 26.675781 27.691406 26.796875 27.546875 26.953125 27.460938 Z M 10.644531 35.664062 C 9.984375 35.316406 9.316406 34.980469 8.683594 34.59375 C 7.472656 33.84375 6.28125 33.066406 5.085938 32.292969 C 4.957031 32.210938 4.691406 32.128906 4.972656 31.890625 C 4.878906 31.855469 4.78125 31.816406 4.679688 31.78125 C 4.785156 31.816406 4.894531 31.855469 5 31.886719 C 5.066406 31.917969 5.136719 31.949219 5.261719 31.980469 C 5.328125 31.984375 5.382812 31.988281 5.429688 31.988281 C 5.386719 31.988281 5.34375 31.988281 5.289062 31.988281 C 6.785156 33.125 8.367188 34.179688 10.082031 35.019531 C 10.332031 35.140625 10.566406 35.296875 10.796875 35.453125 C 10.859375 35.496094 10.882812 35.601562 10.925781 35.675781 C 10.832031 35.675781 10.71875 35.703125 10.644531 35.664062 Z M 17.199219 39.691406 C 16.945312 40.222656 16.8125 40.785156 16.949219 41.417969 C 17.003906 41.355469 17.035156 41.300781 17.054688 41.242188 C 17.246094 40.6875 17.398438 40.113281 17.640625 39.582031 C 17.667969 39.53125 17.703125 39.476562 17.746094 39.425781 C 17.703125 39.476562 17.667969 39.53125 17.644531 39.582031 C 17.398438 40.113281 17.246094 40.6875 17.058594 41.242188 C 17.039062 41.300781 17.003906 41.355469 16.949219 41.449219 C 16.929688 41.691406 16.9375 41.898438 16.957031 42.101562 C 16.9375 41.898438 16.929688 41.691406 16.917969 41.453125 C 16.804688 40.796875 16.945312 40.226562 17.199219 39.691406 Z M 32.433594 37.59375 C 32.734375 37.496094 33.03125 37.390625 33.335938 37.308594 C 33.03125 37.390625 32.734375 37.496094 32.433594 37.59375 Z M 36.476562 35.726562 C 36.210938 35.796875 35.941406 35.867188 35.671875 35.941406 C 35.941406 35.867188 36.210938 35.796875 36.476562 35.722656 C 36.550781 35.703125 36.601562 35.597656 36.660156 35.535156 C 36.601562 35.597656 36.550781 35.703125 36.476562 35.726562 Z M 36.476562 35.726562 " fill-opacity="1" fill-rule="nonzero"/></g><path fill="#303033" d="M 38.554688 34.265625 C 38.59375 34.265625 38.613281 34.25 38.621094 34.234375 C 38.578125 34.226562 38.554688 34.234375 38.554688 34.265625 Z M 38.554688 34.265625 " fill-opacity="1" fill-rule="nonzero"/><path fill="#2e59a7" d="M 16.160156 38.097656 C 16.269531 38.152344 16.371094 38.230469 16.484375 38.25 C 16.632812 38.277344 16.789062 38.257812 16.9375 38.257812 C 16.832031 38.160156 16.738281 38.019531 16.613281 37.96875 C 15.742188 37.609375 14.863281 37.261719 13.984375 36.925781 C 13.878906 36.882812 13.746094 36.914062 13.625 36.914062 C 13.714844 36.996094 13.792969 37.117188 13.898438 37.160156 C 14.628906 37.472656 15.371094 37.769531 16.160156 38.097656 Z M 16.160156 38.097656 " fill-opacity="1" fill-rule="nonzero"/><g clip-path="url(#939ee05bbd)"><path fill="#f45830" d="M 28.09375 41.714844 C 24.773438 42.613281 21.460938 43.527344 18.148438 44.453125 C 17.855469 44.535156 17.71875 44.425781 17.585938 44.230469 C 17.152344 43.59375 17.023438 42.863281 16.957031 42.117188 C 16.9375 41.910156 16.929688 41.699219 16.917969 41.453125 C 16.75 40.492188 17.128906 39.714844 17.609375 38.960938 C 17.785156 38.6875 18.058594 38.765625 18.304688 38.710938 C 18.914062 38.582031 19.515625 38.417969 20.125 38.269531 C 25.777344 36.890625 31.433594 35.511719 37.089844 34.140625 C 37.824219 33.960938 38.566406 33.816406 39.339844 33.636719 C 39.230469 33.484375 39.109375 33.320312 38.945312 33.234375 C 38.699219 33.105469 38.425781 33.035156 38.164062 32.941406 C 36 32.171875 33.835938 31.402344 31.671875 30.632812 L 4.949219 30.472656 C 4.878906 30.425781 4.792969 30.429688 4.71875 30.46875 C 4.609375 30.53125 4.492188 30.566406 4.367188 30.605469 C 4.105469 30.691406 3.847656 30.789062 3.582031 30.859375 C 2.804688 31.0625 2.355469 31.601562 2.246094 32.335938 C 2.109375 33.25 2.101562 34.179688 2.0625 35.105469 C 2.035156 35.839844 2.445312 36.355469 3.015625 36.753906 C 4.613281 37.867188 6.191406 39.007812 7.820312 40.070312 C 10.402344 41.75 12.972656 43.449219 15.78125 44.742188 C 16.441406 45.046875 17.109375 45.34375 17.855469 45.234375 C 18.5625 45.128906 19.277344 44.996094 19.964844 44.808594 C 24.09375 43.675781 28.21875 42.535156 32.335938 41.371094 C 34.421875 40.777344 36.492188 40.128906 38.566406 39.488281 C 38.710938 39.445312 38.808594 39.257812 38.929688 39.136719 C 38.777344 39.070312 38.625 39 38.476562 38.933594 C 35.015625 39.859375 31.550781 40.78125 28.09375 41.714844 Z M 28.09375 41.714844 " fill-opacity="1" fill-rule="nonzero"/></g><path fill="#fcac3d" d="M 35.871094 25.460938 C 35.769531 24.8125 35.429688 24.203125 34.792969 23.910156 C 34.394531 23.722656 33.925781 23.683594 33.460938 23.589844 L 14.015625 22.621094 L 6.222656 25.621094 C 5.511719 25.777344 4.816406 25.894531 4.140625 26.074219 C 3.953125 26.121094 3.8125 26.339844 3.648438 26.480469 C 3.6875 26.476562 3.742188 26.453125 3.765625 26.46875 C 4.761719 27.1875 5.96875 27.296875 7.101562 27.554688 C 10.730469 28.382812 14.378906 29.132812 18.023438 29.890625 C 19.085938 30.113281 20.160156 30.3125 21.242188 30.429688 C 22.113281 30.527344 22.476562 31.042969 22.667969 31.789062 C 22.691406 31.875 22.675781 31.972656 22.644531 32.074219 C 22.820312 32.804688 22.953125 33.527344 22.734375 34.273438 C 22.585938 34.777344 22.058594 35.109375 21.558594 34.996094 C 19.40625 34.492188 17.25 33.992188 15.097656 33.496094 C 11.640625 32.695312 8.1875 31.898438 4.730469 31.097656 C 4.679688 31.085938 4.632812 31.0625 4.523438 31.023438 C 4.421875 31 4.375 30.984375 4.34375 31 C 4.179688 31.09375 3.90625 31.167969 3.871094 31.300781 C 3.808594 31.550781 4.058594 31.621094 4.285156 31.671875 C 4.527344 31.722656 4.761719 31.8125 5 31.886719 C 5.066406 31.917969 5.136719 31.949219 5.261719 31.980469 C 5.402344 31.988281 5.484375 31.988281 5.558594 32.003906 C 6.976562 32.332031 8.394531 32.664062 9.8125 32.984375 C 13.859375 33.902344 17.914062 34.800781 21.957031 35.734375 C 22.699219 35.90625 23.296875 35.761719 23.90625 35.332031 C 24.953125 34.597656 26.019531 33.878906 27.117188 33.222656 C 28.617188 32.328125 30.152344 31.496094 31.699219 30.617188 C 32.671875 30.136719 33.621094 29.679688 34.566406 29.21875 C 35.304688 28.863281 35.777344 28.253906 35.894531 27.476562 C 35.992188 26.816406 35.976562 26.121094 35.871094 25.460938 Z M 35.871094 25.460938 " fill-opacity="1" fill-rule="nonzero"/><g clip-path="url(#1ef6526065)"><path fill="#2e59a7" d="M 34.851562 20.714844 C 34.847656 21.851562 34.527344 22.859375 33.476562 23.566406 C 32.273438 24.175781 31.128906 24.777344 29.953125 25.320312 C 27.765625 26.339844 25.566406 27.339844 23.351562 28.304688 C 22.957031 28.480469 22.464844 28.546875 22.03125 28.511719 C 21.277344 28.453125 20.53125 28.289062 19.785156 28.15625 C 16.328125 27.53125 12.867188 26.90625 9.410156 26.269531 C 8.351562 26.074219 7.300781 25.824219 6.246094 25.601562 C 5.636719 25.421875 5.027344 25.238281 4.421875 25.054688 C 4.292969 25.019531 4.148438 24.992188 4.054688 24.910156 C 3.953125 24.820312 3.894531 24.675781 3.820312 24.554688 C 3.941406 24.503906 4.058594 24.433594 4.183594 24.402344 C 4.269531 24.378906 4.367188 24.410156 4.515625 24.441406 C 4.839844 24.519531 5.109375 24.59375 5.382812 24.632812 C 6.25 24.757812 7.128906 24.832031 7.988281 25 C 11.800781 25.746094 15.609375 26.515625 19.417969 27.285156 C 20.195312 27.441406 20.960938 27.679688 21.746094 27.785156 C 22.042969 27.828125 22.394531 27.644531 22.6875 27.492188 C 22.835938 27.417969 22.902344 27.191406 23.03125 27.027344 C 23.09375 26.980469 23.132812 26.945312 23.152344 26.902344 C 23.757812 25.648438 22.890625 24.003906 21.542969 23.664062 C 20.015625 23.28125 18.488281 22.890625 16.949219 22.554688 C 13.15625 21.714844 9.386719 20.804688 5.65625 19.714844 C 5.351562 19.625 5.011719 19.652344 4.691406 19.625 C 4.488281 19.292969 4.722656 19.207031 4.96875 19.128906 C 6.660156 18.601562 8.339844 18.027344 10.046875 17.550781 C 12.640625 16.828125 15.25 16.171875 17.859375 15.496094 C 18.457031 15.339844 19.050781 15.355469 19.671875 15.507812 C 22.890625 16.300781 26.128906 17.035156 29.347656 17.839844 C 30.738281 18.1875 32.105469 18.652344 33.46875 19.089844 L 33.648438 19.183594 C 33.652344 19.175781 33.660156 19.167969 33.664062 19.160156 C 34.445312 19.34375 34.851562 19.847656 34.851562 20.714844 Z M 34.851562 20.714844 " fill-opacity="1" fill-rule="nonzero"/></g><path fill="#fcac3d" d="M 32.894531 24.554688 C 33.089844 24.441406 33.296875 24.339844 33.480469 24.210938 C 33.636719 24.097656 33.769531 23.953125 33.917969 23.820312 C 33.726562 23.871094 33.519531 23.886719 33.351562 23.976562 C 31.214844 25.132812 29.082031 26.292969 26.953125 27.460938 C 26.796875 27.546875 26.675781 27.691406 26.535156 27.8125 C 26.726562 27.777344 26.941406 27.785156 27.105469 27.695312 C 29.023438 26.664062 30.929688 25.617188 32.894531 24.554688 Z M 32.894531 24.554688 " fill-opacity="1" fill-rule="nonzero"/><path fill="#e5e1d7" d="M 38.464844 38.910156 C 35.015625 39.859375 31.550781 40.78125 28.09375 41.714844 C 24.773438 42.617188 21.460938 43.527344 18.148438 44.453125 C 17.855469 44.535156 17.71875 44.425781 17.585938 44.230469 C 17.152344 43.59375 17.023438 42.867188 16.957031 42.121094 C 16.9375 41.910156 16.929688 41.699219 16.949219 41.449219 C 17.003906 41.355469 17.039062 41.300781 17.058594 41.242188 C 17.246094 40.6875 17.398438 40.113281 17.644531 39.582031 C 17.742188 39.367188 18.019531 39.15625 18.253906 39.097656 C 20.4375 38.554688 22.632812 38.050781 24.824219 37.527344 C 29.390625 36.4375 33.953125 35.34375 38.519531 34.25 C 38.351562 34.585938 38.15625 34.910156 38.023438 35.261719 C 37.875 35.644531 37.738281 36.042969 37.691406 36.445312 C 37.585938 37.359375 37.710938 38.222656 38.464844 38.910156 Z M 26.289062 39.253906 C 27.386719 38.9375 28.480469 38.609375 29.582031 38.3125 C 30.382812 38.097656 31.199219 37.933594 32.003906 37.722656 C 32.453125 37.605469 32.886719 37.425781 33.335938 37.308594 C 33.796875 37.191406 34.265625 37.113281 34.730469 37.015625 C 34.792969 37 34.851562 36.949219 34.910156 36.914062 C 34.835938 36.882812 34.753906 36.808594 34.691406 36.824219 C 33.972656 36.976562 33.253906 37.128906 32.542969 37.308594 C 31.601562 37.546875 30.664062 37.796875 29.726562 38.050781 C 28.542969 38.375 27.359375 38.710938 26.179688 39.042969 C 26.097656 39.066406 26.027344 39.125 25.953125 39.167969 C 26.042969 39.195312 26.132812 39.222656 26.289062 39.253906 Z M 33.890625 36.402344 C 34.753906 36.179688 35.617188 35.957031 36.476562 35.726562 C 36.550781 35.703125 36.601562 35.597656 36.660156 35.535156 C 36.582031 35.511719 36.492188 35.457031 36.421875 35.472656 C 35.941406 35.570312 35.464844 35.667969 34.992188 35.792969 C 33.335938 36.222656 31.679688 36.660156 30.027344 37.109375 C 29.742188 37.1875 29.480469 37.34375 29.210938 37.46875 C 29.175781 37.484375 29.152344 37.53125 29.121094 37.566406 C 29.160156 37.570312 29.203125 37.59375 29.234375 37.582031 C 29.378906 37.535156 29.519531 37.460938 29.664062 37.429688 C 30.070312 37.339844 30.484375 37.28125 30.890625 37.183594 C 31.871094 36.941406 32.851562 36.683594 33.890625 36.402344 Z M 28.210938 39.203125 C 28.148438 39.214844 28.082031 39.21875 28.019531 39.238281 C 27.929688 39.273438 27.84375 39.320312 27.757812 39.359375 C 27.855469 39.367188 27.957031 39.398438 28.046875 39.375 C 28.65625 39.222656 29.265625 39.0625 29.871094 38.902344 C 29.910156 38.890625 29.9375 38.851562 29.96875 38.828125 C 29.933594 38.8125 29.894531 38.78125 29.863281 38.789062 C 29.332031 38.917969 28.800781 39.054688 28.210938 39.203125 Z M 28.210938 39.203125 " fill-opacity="1" fill-rule="nonzero"/><path fill="#e5e1d7" d="M 22.613281 32.082031 C 22.820312 32.800781 22.953125 33.523438 22.734375 34.269531 C 22.585938 34.773438 22.054688 35.109375 21.558594 34.992188 C 19.40625 34.492188 17.25 33.992188 15.097656 33.492188 C 11.640625 32.691406 8.1875 31.894531 4.730469 31.09375 C 4.679688 31.082031 4.632812 31.058594 4.558594 31.019531 C 4.617188 30.839844 4.699219 30.679688 4.78125 30.488281 C 5.089844 29.820312 4.871094 29.175781 4.804688 28.53125 C 4.796875 28.453125 4.785156 28.378906 4.804688 28.261719 C 5.472656 28.335938 6.105469 28.441406 6.738281 28.558594 C 7.992188 28.792969 9.246094 29.023438 10.5 29.273438 C 11.292969 29.429688 12.082031 29.621094 12.875 29.789062 C 13.488281 29.921875 14.109375 30.039062 14.726562 30.164062 C 14.773438 30.171875 14.828125 30.152344 14.878906 30.144531 C 14.839844 30.09375 14.8125 30.007812 14.761719 29.992188 C 14.523438 29.929688 14.285156 29.859375 14.042969 29.832031 C 13.234375 29.742188 12.488281 29.355469 11.644531 29.386719 C 11.25 29.402344 10.855469 29.128906 10.449219 29.042969 C 8.6875 28.683594 6.921875 28.34375 5.15625 27.992188 C 4.972656 27.957031 4.792969 27.890625 4.613281 27.839844 C 4.535156 27.671875 4.453125 27.503906 4.402344 27.304688 C 5.277344 27.488281 6.125 27.722656 6.976562 27.910156 C 9.203125 28.394531 11.433594 28.878906 13.664062 29.332031 C 15.914062 29.785156 18.164062 30.21875 20.421875 30.625 C 21.382812 30.796875 22.3125 30.957031 22.613281 32.082031 Z M 18.910156 30.960938 C 18.808594 30.96875 18.699219 31 18.605469 30.976562 C 17.597656 30.707031 16.59375 30.425781 15.582031 30.160156 C 15.484375 30.132812 15.363281 30.195312 15.25 30.21875 C 15.339844 30.269531 15.425781 30.347656 15.519531 30.371094 C 16.527344 30.621094 17.53125 30.863281 18.539062 31.105469 C 18.988281 31.210938 19.4375 31.316406 19.886719 31.417969 C 19.945312 31.429688 20.007812 31.40625 20.070312 31.398438 C 20.023438 31.363281 19.984375 31.3125 19.929688 31.296875 C 19.609375 31.191406 19.28125 31.09375 18.910156 30.960938 Z M 14.171875 30.476562 C 14.375 30.523438 14.574219 30.582031 14.777344 30.617188 C 14.871094 30.636719 14.976562 30.605469 15.074219 30.597656 C 14.988281 30.53125 14.914062 30.425781 14.820312 30.40625 C 14.109375 30.238281 13.394531 30.085938 12.679688 29.9375 C 12.617188 29.925781 12.546875 29.960938 12.476562 29.976562 C 12.527344 30.035156 12.566406 30.125 12.625 30.140625 C 13.117188 30.257812 13.609375 30.359375 14.171875 30.476562 Z M 14.171875 30.476562 " fill-opacity="1" fill-rule="nonzero"/><path fill="#e5e1d7" d="M 23.003906 27.03125 C 22.898438 27.191406 22.832031 27.417969 22.6875 27.496094 C 22.394531 27.644531 22.042969 27.828125 21.742188 27.785156 C 20.960938 27.679688 20.195312 27.441406 19.414062 27.285156 C 15.605469 26.515625 11.796875 25.746094 7.984375 25 C 7.128906 24.832031 6.25 24.761719 5.382812 24.632812 C 5.109375 24.59375 4.839844 24.519531 4.546875 24.441406 C 4.65625 24.308594 4.773438 24.179688 4.917969 24.085938 C 5.636719 23.632812 5.757812 22.898438 5.699219 22.175781 C 5.644531 21.464844 5.410156 20.765625 5.289062 20.03125 C 5.386719 20.003906 5.457031 19.996094 5.523438 20.015625 C 6.902344 20.371094 8.28125 20.746094 9.664062 21.089844 C 12.035156 21.675781 14.414062 22.246094 16.789062 22.820312 C 18.3125 23.1875 19.835938 23.539062 21.351562 23.929688 C 22.597656 24.253906 23.207031 25.25 22.996094 26.519531 C 22.96875 26.683594 23 26.859375 23.003906 27.03125 Z M 7.167969 22.800781 L 7.175781 22.785156 C 7.175781 22.785156 7.175781 22.796875 7.175781 22.847656 C 7.25 22.90625 7.316406 23.003906 7.398438 23.019531 C 8.046875 23.140625 8.695312 23.246094 9.347656 23.347656 C 9.425781 23.363281 9.507812 23.335938 9.589844 23.324219 C 9.523438 23.257812 9.464844 23.140625 9.386719 23.128906 C 8.652344 23.007812 7.917969 22.90625 7.167969 22.800781 Z M 19.875 24.25 C 19.445312 24.136719 19.015625 24.027344 18.585938 23.914062 C 17.972656 23.75 17.359375 23.578125 16.742188 23.414062 C 16.140625 23.257812 15.539062 23.089844 14.925781 22.964844 C 14.746094 22.929688 14.59375 22.90625 14.410156 22.824219 C 13.953125 22.621094 13.429688 22.554688 12.933594 22.4375 C 12.351562 22.300781 11.765625 22.171875 11.183594 22.027344 C 10.6875 21.90625 10.199219 21.761719 9.703125 21.636719 C 9.652344 21.625 9.578125 21.679688 9.515625 21.703125 C 9.550781 21.75 9.578125 21.8125 9.625 21.839844 C 9.691406 21.878906 9.773438 21.894531 9.847656 21.921875 C 10.515625 22.175781 11.246094 22.164062 11.910156 22.445312 C 12.15625 22.550781 12.445312 22.5625 12.707031 22.640625 C 13.59375 22.902344 14.480469 23.179688 15.371094 23.4375 C 16.9375 23.898438 18.511719 24.34375 20.078125 24.800781 C 20.292969 24.863281 20.492188 24.96875 20.707031 25.003906 C 20.800781 25.019531 20.914062 24.894531 21.015625 24.835938 C 20.953125 24.75 20.90625 24.628906 20.820312 24.589844 C 20.535156 24.464844 20.230469 24.375 19.875 24.25 Z M 17.136719 24.609375 C 17.597656 24.75 18.066406 24.871094 18.519531 25.035156 C 18.910156 25.175781 19.328125 25.125 19.714844 25.398438 C 20.0625 25.648438 20.566406 25.695312 21.007812 25.804688 C 21.113281 25.832031 21.246094 25.761719 21.363281 25.734375 C 21.292969 25.644531 21.238281 25.511719 21.144531 25.46875 C 20.609375 25.230469 20.03125 25.140625 19.480469 24.929688 C 18.558594 24.578125 17.589844 24.347656 16.636719 24.089844 C 15.128906 23.683594 13.613281 23.289062 12.101562 22.90625 C 11.644531 22.789062 11.175781 22.707031 10.710938 22.625 C 10.613281 22.609375 10.507812 22.65625 10.410156 22.671875 C 10.503906 22.734375 10.585938 22.824219 10.691406 22.851562 C 11.246094 23 11.8125 23.125 12.367188 23.28125 C 13.339844 23.554688 14.304688 23.847656 15.277344 24.121094 C 15.878906 24.285156 16.484375 24.425781 17.136719 24.609375 Z M 15.632812 24.75 C 15.746094 24.746094 15.855469 24.742188 15.96875 24.738281 C 15.863281 24.679688 15.765625 24.617188 15.65625 24.570312 C 15.585938 24.539062 15.507812 24.527344 15.429688 24.507812 C 15.003906 24.417969 14.578125 24.324219 14.148438 24.242188 C 14.105469 24.234375 14.050781 24.292969 14.003906 24.320312 C 14.039062 24.347656 14.070312 24.398438 14.109375 24.40625 C 14.609375 24.507812 15.109375 24.605469 15.632812 24.75 Z M 7.203125 21.210938 C 7.632812 21.339844 8.066406 21.464844 8.496094 21.59375 C 8.554688 21.613281 8.621094 21.648438 8.675781 21.636719 C 8.742188 21.617188 8.796875 21.554688 8.855469 21.511719 C 8.804688 21.488281 8.753906 21.453125 8.699219 21.441406 C 8.300781 21.332031 7.902344 21.21875 7.5 21.132812 C 7.394531 21.113281 7.265625 21.179688 7.203125 21.210938 Z M 8.300781 22.070312 C 8.164062 22.046875 8.023438 22.019531 7.886719 22.007812 C 7.851562 22.003906 7.8125 22.042969 7.777344 22.066406 C 7.804688 22.085938 7.828125 22.117188 7.859375 22.121094 C 8.320312 22.210938 8.78125 22.300781 9.242188 22.382812 C 9.28125 22.390625 9.324219 22.363281 9.363281 22.351562 C 9.335938 22.324219 9.308594 22.285156 9.277344 22.277344 C 8.972656 22.210938 8.671875 22.148438 8.300781 22.070312 Z M 12.675781 24.074219 C 12.878906 24.117188 13.082031 24.175781 13.285156 24.195312 C 13.367188 24.199219 13.457031 24.121094 13.542969 24.082031 C 13.476562 24.058594 13.410156 24.03125 13.34375 24.011719 C 13.148438 23.953125 12.957031 23.878906 12.757812 23.851562 C 12.59375 23.832031 12.425781 23.867188 12.261719 23.878906 C 12.378906 23.9375 12.5 23.992188 12.675781 24.074219 Z M 12.675781 24.074219 " fill-opacity="1" fill-rule="nonzero"/><g clip-path="url(#a81d32c182)"><path fill="#303033" d="M 38.523438 34.25 C 33.953125 35.34375 29.390625 36.4375 24.824219 37.527344 C 22.632812 38.050781 20.4375 38.554688 18.253906 39.097656 C 18.019531 39.15625 17.742188 39.371094 17.640625 39.582031 C 17.398438 40.113281 17.246094 40.6875 17.054688 41.242188 C 17.035156 41.300781 17.003906 41.355469 16.949219 41.417969 C 16.75 40.492188 17.128906 39.714844 17.609375 38.960938 C 17.785156 38.6875 18.058594 38.765625 18.304688 38.710938 C 18.914062 38.582031 19.515625 38.417969 20.121094 38.269531 C 25.777344 36.890625 31.433594 35.511719 37.089844 34.140625 C 37.824219 33.960938 38.566406 33.820312 39.339844 33.667969 C 39.503906 33.871094 39.433594 34 39.230469 34.066406 C 39.054688 34.125 38.875 34.164062 38.648438 34.222656 C 38.578125 34.226562 38.554688 34.234375 38.539062 34.25 C 38.539062 34.25 38.527344 34.25 38.523438 34.25 Z M 38.523438 34.25 " fill-opacity="1" fill-rule="nonzero"/></g><path fill="#303033" d="M 22.644531 32.074219 C 22.308594 30.957031 21.382812 30.796875 20.421875 30.625 C 18.167969 30.21875 15.914062 29.785156 13.667969 29.332031 C 11.433594 28.878906 9.207031 28.394531 6.980469 27.90625 C 6.125 27.722656 5.28125 27.488281 4.398438 27.277344 C 4.082031 27.074219 3.605469 27.054688 3.644531 26.507812 C 3.691406 26.472656 3.742188 26.449219 3.769531 26.46875 C 4.761719 27.183594 5.96875 27.296875 7.101562 27.554688 C 10.730469 28.378906 14.378906 29.128906 18.023438 29.886719 C 19.085938 30.109375 20.160156 30.308594 21.242188 30.429688 C 22.113281 30.523438 22.476562 31.042969 22.667969 31.785156 C 22.691406 31.875 22.675781 31.972656 22.644531 32.074219 Z M 22.644531 32.074219 " fill-opacity="1" fill-rule="nonzero"/><path fill="#303033" d="M 23.03125 27.027344 C 23 26.859375 22.96875 26.683594 22.996094 26.515625 C 23.207031 25.25 22.597656 24.253906 21.351562 23.929688 C 19.835938 23.539062 18.3125 23.1875 16.789062 22.816406 C 14.414062 22.242188 12.035156 21.675781 9.664062 21.089844 C 8.28125 20.746094 6.902344 20.371094 5.523438 20.011719 C 5.457031 19.996094 5.386719 20.003906 5.289062 19.996094 C 5.113281 19.8125 4.703125 20.097656 4.6875 19.652344 C 5.011719 19.652344 5.351562 19.625 5.65625 19.714844 C 9.382812 20.800781 13.15625 21.714844 16.945312 22.550781 C 18.484375 22.890625 20.011719 23.28125 21.539062 23.664062 C 22.890625 24.003906 23.753906 25.648438 23.152344 26.898438 C 23.132812 26.945312 23.089844 26.980469 23.03125 27.027344 Z M 23.03125 27.027344 " fill-opacity="1" fill-rule="nonzero"/><path fill="#303033" d="M 4.59375 27.855469 C 4.796875 27.890625 4.972656 27.957031 5.15625 27.992188 C 6.921875 28.34375 8.6875 28.683594 10.453125 29.042969 C 10.859375 29.128906 11.253906 29.402344 11.644531 29.386719 C 12.492188 29.355469 13.234375 29.742188 14.042969 29.832031 C 14.289062 29.859375 14.527344 29.929688 14.761719 29.992188 C 14.8125 30.007812 14.84375 30.09375 14.882812 30.144531 C 14.828125 30.152344 14.773438 30.171875 14.726562 30.164062 C 14.109375 30.039062 13.492188 29.921875 12.875 29.789062 C 12.082031 29.621094 11.296875 29.429688 10.5 29.273438 C 9.25 29.023438 7.992188 28.792969 6.738281 28.558594 C 6.105469 28.441406 5.472656 28.335938 4.804688 28.226562 C 4.546875 28.199219 4.5 28.066406 4.59375 27.855469 Z M 4.59375 27.855469 " fill-opacity="1" fill-rule="nonzero"/><path fill="#303033" d="M 33.648438 19.152344 C 33.585938 19.277344 33.53125 19.453125 33.425781 19.492188 C 31.40625 20.257812 29.378906 21.007812 27.351562 21.75 C 27.203125 21.804688 27.023438 21.785156 26.859375 21.804688 C 26.984375 21.707031 27.09375 21.574219 27.234375 21.515625 C 28.769531 20.898438 30.304688 20.285156 31.847656 19.683594 C 32.375 19.476562 32.917969 19.304688 33.488281 19.113281 C 33.558594 19.117188 33.597656 19.128906 33.648438 19.152344 Z M 33.648438 19.152344 " fill-opacity="1" fill-rule="nonzero"/><path fill="#e5e1d7" d="M 38.554688 34.265625 C 38.554688 34.234375 38.578125 34.226562 38.621094 34.234375 C 38.613281 34.25 38.59375 34.265625 38.554688 34.265625 Z M 38.554688 34.265625 " fill-opacity="1" fill-rule="nonzero"/><path fill="#303033" d="M 4.972656 31.890625 C 5.070312 31.917969 5.136719 31.949219 5.230469 31.988281 C 6.785156 33.125 8.367188 34.179688 10.082031 35.019531 C 10.328125 35.140625 10.566406 35.296875 10.796875 35.453125 C 10.859375 35.496094 10.882812 35.601562 10.925781 35.675781 C 10.832031 35.675781 10.71875 35.703125 10.644531 35.664062 C 9.984375 35.316406 9.316406 34.980469 8.683594 34.59375 C 7.472656 33.84375 6.28125 33.066406 5.085938 32.292969 C 4.960938 32.210938 4.691406 32.132812 4.972656 31.890625 Z M 4.972656 31.890625 " fill-opacity="1" fill-rule="nonzero"/><path fill="#303033" d="M 16.136719 38.085938 C 15.371094 37.769531 14.628906 37.472656 13.898438 37.160156 C 13.789062 37.113281 13.714844 36.996094 13.625 36.910156 C 13.746094 36.914062 13.878906 36.882812 13.980469 36.925781 C 14.863281 37.261719 15.738281 37.609375 16.609375 37.96875 C 16.738281 38.019531 16.828125 38.160156 16.9375 38.257812 C 16.785156 38.257812 16.632812 38.277344 16.484375 38.25 C 16.371094 38.230469 16.269531 38.152344 16.136719 38.085938 Z M 16.136719 38.085938 " fill-opacity="1" fill-rule="nonzero"/><path fill="#303033" d="M 32.867188 24.5625 C 30.929688 25.617188 29.023438 26.664062 27.105469 27.695312 C 26.945312 27.785156 26.726562 27.777344 26.535156 27.8125 C 26.675781 27.691406 26.796875 27.546875 26.953125 27.460938 C 29.082031 26.292969 31.214844 25.132812 33.355469 23.976562 C 33.519531 23.886719 33.726562 23.871094 33.917969 23.820312 C 33.773438 23.953125 33.636719 24.097656 33.480469 24.210938 C 33.296875 24.339844 33.09375 24.441406 32.867188 24.5625 Z M 32.867188 24.5625 " fill-opacity="1" fill-rule="nonzero"/><path fill="#303033" d="M 26.257812 39.253906 C 26.132812 39.222656 26.042969 39.195312 25.953125 39.167969 C 26.027344 39.125 26.097656 39.066406 26.179688 39.042969 C 27.359375 38.710938 28.542969 38.375 29.726562 38.050781 C 30.664062 37.796875 31.601562 37.546875 32.542969 37.308594 C 33.253906 37.128906 33.972656 36.976562 34.691406 36.824219 C 34.753906 36.808594 34.835938 36.882812 34.910156 36.914062 C 34.851562 36.949219 34.792969 37 34.730469 37.015625 C 34.265625 37.113281 33.796875 37.191406 33.335938 37.308594 C 32.886719 37.425781 32.453125 37.605469 32.003906 37.722656 C 31.199219 37.933594 30.382812 38.097656 29.582031 38.3125 C 28.480469 38.609375 27.386719 38.9375 26.257812 39.253906 Z M 26.257812 39.253906 " fill-opacity="1" fill-rule="nonzero"/><path fill="#303033" d="M 33.863281 36.417969 C 32.851562 36.683594 31.875 36.941406 30.890625 37.183594 C 30.484375 37.28125 30.070312 37.339844 29.664062 37.425781 C 29.519531 37.460938 29.378906 37.53125 29.234375 37.582031 C 29.203125 37.589844 29.160156 37.570312 29.121094 37.5625 C 29.152344 37.53125 29.175781 37.484375 29.210938 37.46875 C 29.480469 37.34375 29.742188 37.183594 30.027344 37.109375 C 31.679688 36.65625 33.335938 36.222656 34.992188 35.792969 C 35.464844 35.667969 35.941406 35.570312 36.421875 35.472656 C 36.492188 35.457031 36.582031 35.511719 36.660156 35.53125 C 36.601562 35.597656 36.550781 35.703125 36.476562 35.722656 C 35.617188 35.957031 34.753906 36.179688 33.863281 36.417969 Z M 33.863281 36.417969 " fill-opacity="1" fill-rule="nonzero"/><path fill="#303033" d="M 28.242188 39.195312 C 28.800781 39.054688 29.332031 38.917969 29.867188 38.789062 C 29.894531 38.78125 29.933594 38.8125 29.96875 38.828125 C 29.9375 38.851562 29.910156 38.890625 29.875 38.898438 C 29.265625 39.0625 28.65625 39.222656 28.046875 39.375 C 27.957031 39.398438 27.855469 39.363281 27.757812 39.359375 C 27.847656 39.316406 27.929688 39.273438 28.023438 39.238281 C 28.082031 39.21875 28.148438 39.214844 28.242188 39.195312 Z M 28.242188 39.195312 " fill-opacity="1" fill-rule="nonzero"/><path fill="#303033" d="M 18.933594 30.976562 C 19.28125 31.09375 19.609375 31.191406 19.929688 31.296875 C 19.984375 31.3125 20.023438 31.363281 20.070312 31.398438 C 20.007812 31.40625 19.945312 31.429688 19.886719 31.417969 C 19.4375 31.316406 18.988281 31.210938 18.539062 31.105469 C 17.53125 30.863281 16.523438 30.621094 15.519531 30.371094 C 15.425781 30.347656 15.339844 30.269531 15.25 30.21875 C 15.363281 30.195312 15.484375 30.132812 15.582031 30.160156 C 16.59375 30.425781 17.597656 30.707031 18.605469 30.976562 C 18.699219 31 18.808594 30.96875 18.933594 30.976562 Z M 18.933594 30.976562 " fill-opacity="1" fill-rule="nonzero"/><path fill="#303033" d="M 14.136719 30.46875 C 13.609375 30.359375 13.117188 30.257812 12.625 30.140625 C 12.566406 30.125 12.527344 30.03125 12.476562 29.976562 C 12.546875 29.960938 12.617188 29.921875 12.679688 29.9375 C 13.394531 30.085938 14.109375 30.238281 14.820312 30.402344 C 14.914062 30.425781 14.988281 30.53125 15.074219 30.597656 C 14.976562 30.605469 14.871094 30.632812 14.777344 30.617188 C 14.574219 30.582031 14.375 30.523438 14.136719 30.46875 Z M 14.136719 30.46875 " fill-opacity="1" fill-rule="nonzero"/><path fill="#303033" d="M 19.90625 24.257812 C 20.230469 24.375 20.535156 24.464844 20.820312 24.589844 C 20.90625 24.625 20.953125 24.75 21.015625 24.835938 C 20.914062 24.894531 20.800781 25.019531 20.707031 25.003906 C 20.492188 24.96875 20.292969 24.859375 20.082031 24.800781 C 18.511719 24.34375 16.9375 23.894531 15.371094 23.4375 C 14.480469 23.179688 13.597656 22.902344 12.707031 22.640625 C 12.445312 22.5625 12.160156 22.550781 11.910156 22.445312 C 11.25 22.160156 10.515625 22.171875 9.851562 21.921875 C 9.777344 21.890625 9.695312 21.878906 9.625 21.839844 C 9.578125 21.8125 9.554688 21.75 9.515625 21.703125 C 9.578125 21.679688 9.652344 21.621094 9.707031 21.636719 C 10.199219 21.761719 10.6875 21.90625 11.183594 22.027344 C 11.765625 22.171875 12.351562 22.300781 12.9375 22.4375 C 13.433594 22.554688 13.953125 22.621094 14.410156 22.824219 C 14.59375 22.90625 14.746094 22.929688 14.925781 22.964844 C 15.539062 23.089844 16.140625 23.257812 16.742188 23.414062 C 17.359375 23.574219 17.972656 23.75 18.585938 23.914062 C 19.015625 24.027344 19.445312 24.136719 19.90625 24.257812 Z M 19.90625 24.257812 " fill-opacity="1" fill-rule="nonzero"/><path fill="#303033" d="M 17.113281 24.59375 C 16.484375 24.425781 15.878906 24.285156 15.277344 24.121094 C 14.304688 23.847656 13.339844 23.554688 12.367188 23.28125 C 11.8125 23.125 11.246094 23 10.691406 22.851562 C 10.589844 22.824219 10.503906 22.730469 10.410156 22.671875 C 10.507812 22.65625 10.617188 22.609375 10.710938 22.625 C 11.175781 22.707031 11.644531 22.789062 12.101562 22.90625 C 13.613281 23.289062 15.128906 23.683594 16.636719 24.089844 C 17.59375 24.347656 18.558594 24.578125 19.480469 24.929688 C 20.03125 25.140625 20.613281 25.230469 21.144531 25.46875 C 21.238281 25.511719 21.292969 25.644531 21.363281 25.734375 C 21.246094 25.761719 21.113281 25.832031 21.007812 25.804688 C 20.566406 25.695312 20.066406 25.648438 19.714844 25.398438 C 19.332031 25.125 18.910156 25.175781 18.523438 25.035156 C 18.066406 24.871094 17.597656 24.75 17.113281 24.59375 Z M 17.113281 24.59375 " fill-opacity="1" fill-rule="nonzero"/><path fill="#303033" d="M 7.179688 22.796875 C 7.917969 22.90625 8.652344 23.007812 9.386719 23.128906 C 9.464844 23.140625 9.523438 23.257812 9.589844 23.324219 C 9.507812 23.332031 9.425781 23.359375 9.347656 23.347656 C 8.695312 23.246094 8.046875 23.140625 7.398438 23.019531 C 7.316406 23.003906 7.25 22.90625 7.175781 22.824219 C 7.179688 22.796875 7.179688 22.796875 7.179688 22.796875 Z M 7.179688 22.796875 " fill-opacity="1" fill-rule="nonzero"/><path fill="#303033" d="M 15.621094 24.726562 C 15.109375 24.605469 14.609375 24.507812 14.109375 24.40625 C 14.070312 24.398438 14.039062 24.351562 14.003906 24.320312 C 14.050781 24.292969 14.105469 24.234375 14.148438 24.242188 C 14.578125 24.324219 15.003906 24.417969 15.429688 24.511719 C 15.507812 24.527344 15.585938 24.539062 15.65625 24.570312 C 15.765625 24.617188 15.863281 24.679688 15.96875 24.738281 C 15.855469 24.742188 15.746094 24.746094 15.621094 24.726562 Z M 15.621094 24.726562 " fill-opacity="1" fill-rule="nonzero"/><path fill="#303033" d="M 7.175781 21.207031 C 7.265625 21.179688 7.394531 21.113281 7.5 21.132812 C 7.902344 21.21875 8.300781 21.332031 8.703125 21.441406 C 8.753906 21.453125 8.804688 21.488281 8.855469 21.511719 C 8.796875 21.554688 8.742188 21.617188 8.675781 21.636719 C 8.625 21.648438 8.558594 21.609375 8.496094 21.59375 C 8.066406 21.464844 7.632812 21.339844 7.175781 21.207031 Z M 7.175781 21.207031 " fill-opacity="1" fill-rule="nonzero"/><path fill="#303033" d="M 8.335938 22.078125 C 8.671875 22.148438 8.972656 22.210938 9.277344 22.277344 C 9.308594 22.285156 9.332031 22.324219 9.363281 22.351562 C 9.320312 22.363281 9.277344 22.390625 9.242188 22.382812 C 8.78125 22.300781 8.316406 22.210938 7.855469 22.121094 C 7.828125 22.117188 7.800781 22.085938 7.773438 22.066406 C 7.8125 22.046875 7.851562 22.003906 7.886719 22.007812 C 8.023438 22.019531 8.164062 22.046875 8.335938 22.078125 Z M 8.335938 22.078125 " fill-opacity="1" fill-rule="nonzero"/><path fill="#303033" d="M 12.644531 24.058594 C 12.496094 23.992188 12.378906 23.9375 12.261719 23.882812 C 12.425781 23.871094 12.59375 23.832031 12.757812 23.851562 C 12.957031 23.878906 13.148438 23.957031 13.34375 24.011719 C 13.410156 24.03125 13.476562 24.058594 13.542969 24.082031 C 13.457031 24.121094 13.367188 24.203125 13.285156 24.195312 C 13.082031 24.175781 12.878906 24.117188 12.644531 24.058594 Z M 12.644531 24.058594 " fill-opacity="1" fill-rule="nonzero"/><path fill="#303033" d="M 7.175781 22.796875 C 7.175781 22.796875 7.175781 22.785156 7.175781 22.785156 C 7.175781 22.785156 7.167969 22.800781 7.175781 22.800781 C 7.179688 22.796875 7.179688 22.796875 7.175781 22.796875 Z M 7.175781 22.796875 " fill-opacity="1" fill-rule="nonzero"/><g clip-path="url(#5d675ee82c)"><path fill="#5e17eb" d="M 56.511719 36.246094 C 56.511719 40.675781 53.285156 45.347656 47.023438 45.347656 L 35.53125 45.347656 L 41.625 39.464844 L 46.457031 39.464844 C 48.4375 39.464844 50.550781 38.125 50.550781 35.816406 C 50.550781 34.085938 49.34375 32.355469 46.4375 32.355469 L 41.625 32.355469 L 41.625 27.070312 L 44.097656 27.070312 C 45.550781 27.070312 46.964844 25.839844 46.964844 24.089844 C 46.964844 22.398438 45.625 21.207031 44.210938 21.207031 L 41.625 21.207031 L 35.53125 15.339844 L 43.832031 15.339844 C 49.226562 15.339844 52.660156 19.25 52.660156 23.289062 C 52.660156 26.472656 50.53125 28.445312 49.792969 28.445312 C 52.71875 28.445312 56.511719 31.421875 56.511719 36.246094 Z M 56.511719 36.246094 " fill-opacity="1" fill-rule="nonzero"/></g><g fill="#000000" fill-opacity="1"><g transform="translate(57.648529, 29.627873)"><g><path d="M 5.90625 -2.859375 C 5.90625 -1.921875 5.671875 -1.195312 5.203125 -0.6875 C 4.734375 -0.175781 4.0625 0.078125 3.1875 0.078125 C 2.3125 0.078125 1.640625 -0.175781 1.171875 -0.6875 C 0.703125 -1.195312 0.46875 -1.925781 0.46875 -2.875 C 0.46875 -3.820312 0.703125 -4.546875 1.171875 -5.046875 C 1.640625 -5.546875 2.3125 -5.796875 3.1875 -5.796875 C 4.070312 -5.796875 4.742188 -5.539062 5.203125 -5.03125 C 5.671875 -4.53125 5.90625 -3.804688 5.90625 -2.859375 Z M 1.734375 -2.859375 C 1.734375 -2.222656 1.851562 -1.742188 2.09375 -1.421875 C 2.34375 -1.097656 2.707031 -0.9375 3.1875 -0.9375 C 4.15625 -0.9375 4.640625 -1.578125 4.640625 -2.859375 C 4.640625 -4.148438 4.15625 -4.796875 3.1875 -4.796875 C 2.707031 -4.796875 2.34375 -4.632812 2.09375 -4.3125 C 1.851562 -3.988281 1.734375 -3.503906 1.734375 -2.859375 Z M 1.734375 -2.859375 "/></g></g></g><g fill="#000000" fill-opacity="1"><g transform="translate(64.009498, 29.627873)"><g><path d="M 1.9375 -3.171875 L 2.328125 -3.171875 C 2.703125 -3.171875 2.976562 -3.234375 3.15625 -3.359375 C 3.34375 -3.492188 3.4375 -3.695312 3.4375 -3.96875 C 3.4375 -4.238281 3.34375 -4.429688 3.15625 -4.546875 C 2.976562 -4.660156 2.691406 -4.71875 2.296875 -4.71875 L 1.9375 -4.71875 Z M 1.9375 -2.1875 L 1.9375 0 L 0.71875 0 L 0.71875 -5.71875 L 2.390625 -5.71875 C 3.160156 -5.71875 3.734375 -5.570312 4.109375 -5.28125 C 4.484375 -5 4.671875 -4.570312 4.671875 -4 C 4.671875 -3.664062 4.578125 -3.367188 4.390625 -3.109375 C 4.203125 -2.847656 3.941406 -2.640625 3.609375 -2.484375 C 4.460938 -1.203125 5.019531 -0.375 5.28125 0 L 3.9375 0 L 2.578125 -2.1875 Z M 1.9375 -2.1875 "/></g></g></g><g fill="#000000" fill-opacity="1"><g transform="translate(69.28559, 29.627873)"><g><path d="M 3.140625 -4.78125 C 2.691406 -4.78125 2.34375 -4.609375 2.09375 -4.265625 C 1.84375 -3.929688 1.71875 -3.457031 1.71875 -2.84375 C 1.71875 -1.570312 2.191406 -0.9375 3.140625 -0.9375 C 3.546875 -0.9375 4.035156 -1.035156 4.609375 -1.234375 L 4.609375 -0.21875 C 4.140625 -0.0195312 3.613281 0.078125 3.03125 0.078125 C 2.195312 0.078125 1.5625 -0.171875 1.125 -0.671875 C 0.6875 -1.179688 0.46875 -1.90625 0.46875 -2.84375 C 0.46875 -3.4375 0.570312 -3.957031 0.78125 -4.40625 C 1 -4.851562 1.3125 -5.195312 1.71875 -5.4375 C 2.125 -5.675781 2.597656 -5.796875 3.140625 -5.796875 C 3.703125 -5.796875 4.257812 -5.660156 4.8125 -5.390625 L 4.421875 -4.40625 C 4.210938 -4.507812 4 -4.597656 3.78125 -4.671875 C 3.5625 -4.742188 3.347656 -4.78125 3.140625 -4.78125 Z M 3.140625 -4.78125 "/></g></g></g><g fill="#000000" fill-opacity="1"><g transform="translate(74.378268, 29.627873)"><g><path d="M 4.015625 0 L 0.71875 0 L 0.71875 -5.71875 L 4.015625 -5.71875 L 4.015625 -4.71875 L 1.9375 -4.71875 L 1.9375 -3.46875 L 3.859375 -3.46875 L 3.859375 -2.46875 L 1.9375 -2.46875 L 1.9375 -1 L 4.015625 -1 Z M 4.015625 0 "/></g></g></g><g fill="#000000" fill-opacity="1"><g transform="translate(78.854361, 29.627873)"><g><path d="M 0.71875 0 L 0.71875 -5.71875 L 1.9375 -5.71875 L 1.9375 -1 L 4.25 -1 L 4.25 0 Z M 0.71875 0 "/></g></g></g><g fill="#000000" fill-opacity="1"><g transform="translate(83.369478, 29.627873)"><g><path d="M 2.5 -3.359375 L 3.6875 -5.71875 L 5 -5.71875 L 3.09375 -2.21875 L 3.09375 0 L 1.890625 0 L 1.890625 -2.1875 L 0 -5.71875 L 1.3125 -5.71875 Z M 2.5 -3.359375 "/></g></g></g><g fill="#000000" fill-opacity="1"><g transform="translate(88.35679, 29.627873)"><g><path d="M 4.09375 -1.59375 C 4.09375 -1.070312 3.90625 -0.660156 3.53125 -0.359375 C 3.164062 -0.0664062 2.648438 0.078125 1.984375 0.078125 C 1.378906 0.078125 0.84375 -0.0351562 0.375 -0.265625 L 0.375 -1.390625 C 0.757812 -1.222656 1.082031 -1.101562 1.34375 -1.03125 C 1.613281 -0.957031 1.859375 -0.921875 2.078125 -0.921875 C 2.347656 -0.921875 2.550781 -0.972656 2.6875 -1.078125 C 2.832031 -1.179688 2.90625 -1.332031 2.90625 -1.53125 C 2.90625 -1.644531 2.875 -1.742188 2.8125 -1.828125 C 2.75 -1.910156 2.65625 -1.992188 2.53125 -2.078125 C 2.414062 -2.160156 2.171875 -2.289062 1.796875 -2.46875 C 1.441406 -2.632812 1.175781 -2.789062 1 -2.9375 C 0.832031 -3.09375 0.695312 -3.269531 0.59375 -3.46875 C 0.488281 -3.664062 0.4375 -3.898438 0.4375 -4.171875 C 0.4375 -4.671875 0.609375 -5.066406 0.953125 -5.359375 C 1.296875 -5.648438 1.769531 -5.796875 2.375 -5.796875 C 2.664062 -5.796875 2.945312 -5.757812 3.21875 -5.6875 C 3.488281 -5.613281 3.769531 -5.515625 4.0625 -5.390625 L 3.671875 -4.453125 C 3.367188 -4.578125 3.117188 -4.660156 2.921875 -4.703125 C 2.722656 -4.753906 2.523438 -4.78125 2.328125 -4.78125 C 2.097656 -4.78125 1.921875 -4.726562 1.796875 -4.625 C 1.679688 -4.519531 1.625 -4.378906 1.625 -4.203125 C 1.625 -4.097656 1.644531 -4.003906 1.6875 -3.921875 C 1.738281 -3.847656 1.816406 -3.773438 1.921875 -3.703125 C 2.035156 -3.628906 2.296875 -3.492188 2.703125 -3.296875 C 3.234375 -3.046875 3.597656 -2.789062 3.796875 -2.53125 C 3.992188 -2.269531 4.09375 -1.957031 4.09375 -1.59375 Z M 4.09375 -1.59375 "/></g></g></g><g fill="#000000" fill-opacity="1"><g transform="translate(62.002578, 40.492273)"><g><path d="M 6.734375 -7.171875 L 6.734375 -2.53125 C 6.734375 -2 6.613281 -1.535156 6.375 -1.140625 C 6.144531 -0.742188 5.804688 -0.4375 5.359375 -0.21875 C 4.910156 -0.0078125 4.378906 0.09375 3.765625 0.09375 C 2.847656 0.09375 2.132812 -0.140625 1.625 -0.609375 C 1.113281 -1.078125 0.859375 -1.722656 0.859375 -2.546875 L 0.859375 -7.171875 L 2.375 -7.171875 L 2.375 -2.78125 C 2.375 -2.226562 2.484375 -1.820312 2.703125 -1.5625 C 2.921875 -1.300781 3.289062 -1.171875 3.8125 -1.171875 C 4.300781 -1.171875 4.65625 -1.300781 4.875 -1.5625 C 5.101562 -1.820312 5.21875 -2.234375 5.21875 -2.796875 L 5.21875 -7.171875 Z M 6.734375 -7.171875 "/></g></g></g><g fill="#000000" fill-opacity="1"><g transform="translate(69.59097, 40.492273)"><g><path d="M 5.84375 0 L 4.34375 0 L 4.34375 -3.203125 C 4.34375 -3.597656 4.269531 -3.894531 4.125 -4.09375 C 3.988281 -4.289062 3.769531 -4.390625 3.46875 -4.390625 C 3.050781 -4.390625 2.75 -4.25 2.5625 -3.96875 C 2.375 -3.6875 2.28125 -3.222656 2.28125 -2.578125 L 2.28125 0 L 0.78125 0 L 0.78125 -5.484375 L 1.921875 -5.484375 L 2.125 -4.78125 L 2.21875 -4.78125 C 2.382812 -5.050781 2.613281 -5.253906 2.90625 -5.390625 C 3.195312 -5.523438 3.53125 -5.59375 3.90625 -5.59375 C 4.539062 -5.59375 5.019531 -5.414062 5.34375 -5.0625 C 5.675781 -4.71875 5.84375 -4.222656 5.84375 -3.578125 Z M 5.84375 0 "/></g></g></g><g fill="#000000" fill-opacity="1"><g transform="translate(76.189146, 40.492273)"><g><path d="M 0.71875 -6.90625 C 0.71875 -7.394531 0.988281 -7.640625 1.53125 -7.640625 C 2.070312 -7.640625 2.34375 -7.394531 2.34375 -6.90625 C 2.34375 -6.664062 2.273438 -6.484375 2.140625 -6.359375 C 2.003906 -6.234375 1.800781 -6.171875 1.53125 -6.171875 C 0.988281 -6.171875 0.71875 -6.414062 0.71875 -6.90625 Z M 2.28125 0 L 0.78125 0 L 0.78125 -5.484375 L 2.28125 -5.484375 Z M 2.28125 0 "/></g></g></g><g fill="#000000" fill-opacity="1"><g transform="translate(79.252935, 40.492273)"><g><path d="M 2.09375 0 L 0 -5.484375 L 1.5625 -5.484375 L 2.625 -2.359375 C 2.738281 -1.960938 2.8125 -1.585938 2.84375 -1.234375 L 2.875 -1.234375 C 2.894531 -1.546875 2.96875 -1.921875 3.09375 -2.359375 L 4.15625 -5.484375 L 5.71875 -5.484375 L 3.625 0 Z M 2.09375 0 "/></g></g></g><g fill="#000000" fill-opacity="1"><g transform="translate(84.963838, 40.492273)"><g><path d="M 3.0625 -4.515625 C 2.738281 -4.515625 2.488281 -4.414062 2.3125 -4.21875 C 2.132812 -4.019531 2.03125 -3.734375 2 -3.359375 L 4.09375 -3.359375 C 4.09375 -3.734375 4 -4.019531 3.8125 -4.21875 C 3.625 -4.414062 3.375 -4.515625 3.0625 -4.515625 Z M 3.265625 0.09375 C 2.378906 0.09375 1.6875 -0.144531 1.1875 -0.625 C 0.695312 -1.113281 0.453125 -1.804688 0.453125 -2.703125 C 0.453125 -3.617188 0.679688 -4.328125 1.140625 -4.828125 C 1.597656 -5.335938 2.234375 -5.59375 3.046875 -5.59375 C 3.816406 -5.59375 4.414062 -5.367188 4.84375 -4.921875 C 5.28125 -4.484375 5.5 -3.875 5.5 -3.09375 L 5.5 -2.375 L 1.96875 -2.375 C 1.976562 -1.945312 2.101562 -1.613281 2.34375 -1.375 C 2.582031 -1.132812 2.910156 -1.015625 3.328125 -1.015625 C 3.660156 -1.015625 3.972656 -1.046875 4.265625 -1.109375 C 4.566406 -1.179688 4.875 -1.296875 5.1875 -1.453125 L 5.1875 -0.296875 C 4.925781 -0.160156 4.644531 -0.0625 4.34375 0 C 4.050781 0.0625 3.691406 0.09375 3.265625 0.09375 Z M 3.265625 0.09375 "/></g></g></g><g fill="#000000" fill-opacity="1"><g transform="translate(90.895334, 40.492273)"><g><path d="M 3.84375 -5.59375 C 4.050781 -5.59375 4.21875 -5.578125 4.34375 -5.546875 L 4.234375 -4.140625 C 4.117188 -4.171875 3.972656 -4.1875 3.796875 -4.1875 C 3.316406 -4.1875 2.941406 -4.0625 2.671875 -3.8125 C 2.410156 -3.570312 2.28125 -3.234375 2.28125 -2.796875 L 2.28125 0 L 0.78125 0 L 0.78125 -5.484375 L 1.921875 -5.484375 L 2.140625 -4.5625 L 2.21875 -4.5625 C 2.382812 -4.875 2.609375 -5.125 2.890625 -5.3125 C 3.179688 -5.5 3.5 -5.59375 3.84375 -5.59375 Z M 3.84375 -5.59375 "/></g></g></g><g fill="#000000" fill-opacity="1"><g transform="translate(95.454252, 40.492273)"><g><path d="M 4.609375 -1.625 C 4.609375 -1.0625 4.410156 -0.632812 4.015625 -0.34375 C 3.628906 -0.0507812 3.046875 0.09375 2.265625 0.09375 C 1.867188 0.09375 1.53125 0.0664062 1.25 0.015625 C 0.96875 -0.0351562 0.707031 -0.113281 0.46875 -0.21875 L 0.46875 -1.453125 C 0.738281 -1.328125 1.046875 -1.21875 1.390625 -1.125 C 1.742188 -1.039062 2.054688 -1 2.328125 -1 C 2.867188 -1 3.140625 -1.15625 3.140625 -1.46875 C 3.140625 -1.582031 3.101562 -1.675781 3.03125 -1.75 C 2.957031 -1.820312 2.832031 -1.90625 2.65625 -2 C 2.476562 -2.09375 2.242188 -2.203125 1.953125 -2.328125 C 1.523438 -2.503906 1.210938 -2.664062 1.015625 -2.8125 C 0.816406 -2.96875 0.671875 -3.140625 0.578125 -3.328125 C 0.492188 -3.523438 0.453125 -3.769531 0.453125 -4.0625 C 0.453125 -4.539062 0.640625 -4.914062 1.015625 -5.1875 C 1.390625 -5.457031 1.925781 -5.59375 2.625 -5.59375 C 3.28125 -5.59375 3.921875 -5.445312 4.546875 -5.15625 L 4.09375 -4.078125 C 3.820312 -4.191406 3.566406 -4.285156 3.328125 -4.359375 C 3.085938 -4.441406 2.84375 -4.484375 2.59375 -4.484375 C 2.15625 -4.484375 1.9375 -4.363281 1.9375 -4.125 C 1.9375 -3.988281 2.003906 -3.867188 2.140625 -3.765625 C 2.285156 -3.671875 2.597656 -3.523438 3.078125 -3.328125 C 3.515625 -3.160156 3.832031 -3 4.03125 -2.84375 C 4.226562 -2.695312 4.375 -2.523438 4.46875 -2.328125 C 4.5625 -2.128906 4.609375 -1.894531 4.609375 -1.625 Z M 4.609375 -1.625 "/></g></g></g><g fill="#000000" fill-opacity="1"><g transform="translate(100.444551, 40.492273)"><g><path d="M 0.71875 -6.90625 C 0.71875 -7.394531 0.988281 -7.640625 1.53125 -7.640625 C 2.070312 -7.640625 2.34375 -7.394531 2.34375 -6.90625 C 2.34375 -6.664062 2.273438 -6.484375 2.140625 -6.359375 C 2.003906 -6.234375 1.800781 -6.171875 1.53125 -6.171875 C 0.988281 -6.171875 0.71875 -6.414062 0.71875 -6.90625 Z M 2.28125 0 L 0.78125 0 L 0.78125 -5.484375 L 2.28125 -5.484375 Z M 2.28125 0 "/></g></g></g><g fill="#000000" fill-opacity="1"><g transform="translate(103.50834, 40.492273)"><g><path d="M 3.09375 -1.09375 C 3.351562 -1.09375 3.664062 -1.148438 4.03125 -1.265625 L 4.03125 -0.15625 C 3.664062 0.0078125 3.207031 0.09375 2.65625 0.09375 C 2.0625 0.09375 1.628906 -0.0546875 1.359375 -0.359375 C 1.085938 -0.660156 0.953125 -1.113281 0.953125 -1.71875 L 0.953125 -4.359375 L 0.234375 -4.359375 L 0.234375 -5 L 1.0625 -5.5 L 1.484375 -6.65625 L 2.4375 -6.65625 L 2.4375 -5.484375 L 3.984375 -5.484375 L 3.984375 -4.359375 L 2.4375 -4.359375 L 2.4375 -1.71875 C 2.4375 -1.5 2.492188 -1.335938 2.609375 -1.234375 C 2.734375 -1.140625 2.894531 -1.09375 3.09375 -1.09375 Z M 3.09375 -1.09375 "/></g></g></g><g clip-path="url(#e67e640f72)"><g fill="#000000" fill-opacity="1"><g transform="translate(107.866274, 40.492273)"><g><path d="M 0 -5.484375 L 1.640625 -5.484375 L 2.671875 -2.40625 C 2.765625 -2.132812 2.828125 -1.816406 2.859375 -1.453125 L 2.890625 -1.453125 C 2.921875 -1.785156 2.988281 -2.101562 3.09375 -2.40625 L 4.109375 -5.484375 L 5.71875 -5.484375 L 3.390625 0.703125 C 3.179688 1.273438 2.878906 1.703125 2.484375 1.984375 C 2.085938 2.265625 1.628906 2.40625 1.109375 2.40625 C 0.847656 2.40625 0.59375 2.378906 0.34375 2.328125 L 0.34375 1.140625 C 0.519531 1.179688 0.71875 1.203125 0.9375 1.203125 C 1.195312 1.203125 1.425781 1.117188 1.625 0.953125 C 1.820312 0.796875 1.976562 0.554688 2.09375 0.234375 L 2.171875 -0.046875 Z M 0 -5.484375 "/></g></g></g></g></svg>